<svg width="22" height="22" viewBox="0 0 22 22" fill="none" xmlns="http://www.w3.org/2000/svg">
<g filter="url(#filter0_b_167_43)">
<g filter="url(#filter1_b_167_43)">
<g filter="url(#filter2_b_167_43)">
<line x1="7.5" y1="5" x2="7.5" y2="10" stroke="#696969" stroke-opacity="0.25"/>
</g>
<g filter="url(#filter3_b_167_43)">
<line x1="10" y1="7.5" x2="5" y2="7.5" stroke="#696969" stroke-opacity="0.25"/>
</g>
</g>
<g filter="url(#filter4_b_167_43)">
<path d="M1 0L-8.74228e-08 8.74228e-08L8.74228e-08 2L1 2L1 0ZM21 2C21.5523 2 22 1.55228 22 0.999998C22 0.447713 21.5523 -1.79674e-06 21 -1.74846e-06L21 2ZM1 2L21 2L21 -1.74846e-06L1 0L1 2Z" fill="#696969" fill-opacity="0.25"/>
</g>
<g filter="url(#filter5_b_167_43)">
<path d="M1.99999 1L1.99999 4.37114e-08L-7.58568e-06 -4.37114e-08L-7.62939e-06 1L1.99999 1ZM-8.50362e-06 21C-8.52776e-06 21.5523 0.447707 22 0.999991 22C1.55228 22 1.99999 21.5523 1.99999 21L-8.50362e-06 21ZM-7.62939e-06 1L-8.50362e-06 21L1.99999 21L1.99999 1L-7.62939e-06 1Z" fill="#696969" fill-opacity="0.25"/>
</g>
</g>
<defs>
<filter id="filter0_b_167_43" x="-34.8" y="-34.8" width="91.6" height="91.6" filterUnits="userSpaceOnUse" color-interpolation-filters="sRGB">
<feFlood flood-opacity="0" result="BackgroundImageFix"/>
<feGaussianBlur in="BackgroundImageFix" stdDeviation="17.4"/>
<feComposite in2="SourceAlpha" operator="in" result="effect1_backgroundBlur_167_43"/>
<feBlend mode="normal" in="SourceGraphic" in2="effect1_backgroundBlur_167_43" result="shape"/>
</filter>
<filter id="filter1_b_167_43" x="-29.8" y="-29.8" width="74.6" height="74.6" filterUnits="userSpaceOnUse" color-interpolation-filters="sRGB">
<feFlood flood-opacity="0" result="BackgroundImageFix"/>
<feGaussianBlur in="BackgroundImageFix" stdDeviation="17.4"/>
<feComposite in2="SourceAlpha" operator="in" result="effect1_backgroundBlur_167_43"/>
<feBlend mode="normal" in="SourceGraphic" in2="effect1_backgroundBlur_167_43" result="shape"/>
</filter>
<filter id="filter2_b_167_43" x="-27.8" y="-29.8" width="70.6" height="74.6" filterUnits="userSpaceOnUse" color-interpolation-filters="sRGB">
<feFlood flood-opacity="0" result="BackgroundImageFix"/>
<feGaussianBlur in="BackgroundImageFix" stdDeviation="17.4"/>
<feComposite in2="SourceAlpha" operator="in" result="effect1_backgroundBlur_167_43"/>
<feBlend mode="normal" in="SourceGraphic" in2="effect1_backgroundBlur_167_43" result="shape"/>
</filter>
<filter id="filter3_b_167_43" x="-29.8" y="-27.8" width="74.6" height="70.6" filterUnits="userSpaceOnUse" color-interpolation-filters="sRGB">
<feFlood flood-opacity="0" result="BackgroundImageFix"/>
<feGaussianBlur in="BackgroundImageFix" stdDeviation="17.4"/>
<feComposite in2="SourceAlpha" operator="in" result="effect1_backgroundBlur_167_43"/>
<feBlend mode="normal" in="SourceGraphic" in2="effect1_backgroundBlur_167_43" result="shape"/>
</filter>
<filter id="filter4_b_167_43" x="-34.8" y="-34.8" width="91.6" height="71.6" filterUnits="userSpaceOnUse" color-interpolation-filters="sRGB">
<feFlood flood-opacity="0" result="BackgroundImageFix"/>
<feGaussianBlur in="BackgroundImageFix" stdDeviation="17.4"/>
<feComposite in2="SourceAlpha" operator="in" result="effect1_backgroundBlur_167_43"/>
<feBlend mode="normal" in="SourceGraphic" in2="effect1_backgroundBlur_167_43" result="shape"/>
</filter>
<filter id="filter5_b_167_43" x="-34.8" y="-34.8" width="71.6" height="91.6" filterUnits="userSpaceOnUse" color-interpolation-filters="sRGB">
<feFlood flood-opacity="0" result="BackgroundImageFix"/>
<feGaussianBlur in="BackgroundImageFix" stdDeviation="17.4"/>
<feComposite in2="SourceAlpha" operator="in" result="effect1_backgroundBlur_167_43"/>
<feBlend mode="normal" in="SourceGraphic" in2="effect1_backgroundBlur_167_43" result="shape"/>
</filter>
</defs>
</svg>
