<svg width="48" height="47" viewBox="0 0 48 47" fill="none" xmlns="http://www.w3.org/2000/svg">
<g clip-path="url(#clip0_115_9)">
<rect x="-11" y="-17" width="116" height="120" rx="58" fill="#1A936F"/>
<path d="M44.9383 0H3.06621C1.37219 0 0 1.34348 0 3.00205V43.998C0 45.6521 1.37219 47 3.06621 47H44.9383C46.6278 47 48.0045 45.6565 48.0045 43.998V2.99767C48 1.34348 46.6278 0 44.9383 0ZM21.7942 26.4889C21.7942 27.793 21.6691 28.9089 21.4143 29.8279C21.1595 30.7469 20.7751 31.4821 20.2656 32.0598C19.7516 32.6287 19.1124 33.0488 18.3481 33.3114C17.5838 33.5783 16.6943 33.7096 15.6797 33.7096C14.7857 33.7096 13.9812 33.5696 13.2571 33.2982C11.8402 32.7775 10.7317 31.6615 10.2445 30.2612C9.95847 29.4778 9.81991 28.6551 9.83332 27.8236V27.2372H12.7073C12.7073 29.8586 13.6996 31.1714 15.6841 31.1714C16.1937 31.1714 16.6407 31.1145 17.0429 30.9964C17.4407 30.8738 17.776 30.655 18.0531 30.3224C18.3302 29.9942 18.5358 29.5391 18.6788 28.9483C18.8219 28.3575 18.8934 27.5917 18.8934 26.6421V11.9732H21.8031L21.7942 26.4889ZM37.8449 30.7469C37.5409 31.3465 37.1118 31.876 36.5844 32.3005C35.9944 32.7643 35.315 33.1188 34.5909 33.3376C33.8087 33.5827 32.9327 33.7052 31.9627 33.7052C27.6674 33.7052 25.4012 32.0466 25.1688 28.7208H27.9937C28.0071 30.5981 29.3212 31.539 31.9315 31.539C32.5125 31.539 33.031 31.4777 33.4735 31.3508C33.9205 31.2283 34.2915 31.0533 34.5865 30.8344C35.163 30.4275 35.5027 29.7754 35.4983 29.0796C35.5117 28.7733 35.4491 28.4713 35.324 28.1912C35.2077 27.9637 34.9798 27.7668 34.6446 27.5917C34.1976 27.3773 33.7327 27.2066 33.25 27.0841C32.4768 26.8653 31.699 26.6552 30.9168 26.4583C29.9827 26.2307 29.1737 26.0032 28.4987 25.7756C27.8998 25.5918 27.3366 25.3161 26.8271 24.9529C26.4025 24.6422 26.0672 24.2308 25.8572 23.7582C25.6471 23.2812 25.5443 22.6817 25.5443 21.9596C25.5443 21.325 25.6828 20.7343 25.9555 20.1872C26.2326 19.6446 26.6215 19.172 27.14 18.7694C27.6495 18.3711 28.2708 18.0604 28.9949 17.8329C29.7815 17.5966 30.604 17.4828 31.4264 17.4915C35.5787 17.4915 37.6929 18.9357 37.7555 21.8283H34.9753C34.877 20.3842 33.764 19.6577 31.6365 19.6577C31.1627 19.6577 30.7291 19.7059 30.3224 19.7978C29.9156 19.8897 29.5715 20.0209 29.272 20.196C28.9725 20.3667 28.7446 20.5811 28.5747 20.8349C28.4093 21.0975 28.32 21.4038 28.3289 21.7145C28.3289 22.0165 28.3691 22.2659 28.4451 22.4585C28.5211 22.6554 28.7043 22.8348 28.9993 23.0011C29.2899 23.1674 29.7234 23.3337 30.2956 23.4956C30.8677 23.6575 31.6499 23.8588 32.6421 24.0952C33.5987 24.3227 34.4345 24.5547 35.1407 24.7997C35.8424 25.0448 36.428 25.338 36.9018 25.6837C37.3711 26.025 37.7152 26.4495 37.9432 26.944C38.1667 27.4385 38.2829 28.06 38.2829 28.8039C38.2918 29.5085 38.1399 30.1518 37.8449 30.7469Z" fill="#C6DABF"/>
</g>
<defs>
<clipPath id="clip0_115_9">
<rect width="48" height="47" fill="white"/>
</clipPath>
</defs>
</svg>
