<svg width="52" height="45" viewBox="0 0 52 45" fill="none" xmlns="http://www.w3.org/2000/svg">
<path d="M52 22.5051C52 19.1577 47.6861 15.9854 41.0722 14.0181C42.5985 7.46738 41.9201 2.25566 38.9311 0.58709C38.2422 0.195697 37.4366 0.0102997 36.5569 0.0102997V2.30716C37.0444 2.30716 37.4366 2.39986 37.7652 2.57496C39.2067 3.37835 39.832 6.4374 39.3445 10.3719C39.2279 11.3401 39.0371 12.3598 38.8039 13.4001C36.7265 12.9057 34.4582 12.5246 32.0734 12.2774C30.6425 10.3719 29.1586 8.64156 27.6641 7.12749C31.1194 4.00664 34.3628 2.29686 36.5675 2.29686V0C33.6527 0 29.8369 2.01877 25.9788 5.52071C22.1207 2.03937 18.3049 0.0411995 15.3901 0.0411995V2.33806C17.5842 2.33806 20.8382 4.03754 24.2935 7.13779C22.8096 8.65187 21.3257 10.3719 19.916 12.2774C17.5206 12.5246 15.2523 12.9057 13.1749 13.4104C12.9311 12.3804 12.7509 11.3813 12.6237 10.4234C12.1256 6.4889 12.7403 3.42985 14.1712 2.61616C14.4892 2.43076 14.9026 2.34836 15.3901 2.34836V0.0514992C14.4998 0.0514992 13.6943 0.236896 12.9947 0.62829C10.0163 2.29686 9.34855 7.49828 10.8854 14.0284C4.2927 16.0059 0 19.168 0 22.5051C0 25.8526 4.3139 29.0249 10.9278 30.9922C9.40155 37.5429 10.0799 42.7546 13.0689 44.4232C13.7578 44.8146 14.5634 45 15.4537 45C18.3685 45 22.1843 42.9812 26.0424 39.4793C29.9005 42.9606 33.7163 44.9588 36.6311 44.9588C37.5214 44.9588 38.327 44.7734 39.0265 44.382C42.0049 42.7134 42.6726 37.512 41.1357 30.9819C47.7073 29.0146 52 25.8423 52 22.5051ZM38.1998 15.6352C37.8076 16.9638 37.32 18.3337 36.7689 19.7036C36.3343 18.8796 35.8785 18.0556 35.3804 17.2316C34.8928 16.4076 34.3734 15.6043 33.8541 14.8215C35.3592 15.0378 36.8112 15.3056 38.1998 15.6352ZM33.3453 26.6045C32.5185 27.995 31.6706 29.3133 30.7909 30.539C29.2116 30.6729 27.6111 30.745 26 30.745C24.3995 30.745 22.799 30.6729 21.2303 30.5493C20.3506 29.3236 19.4921 28.0156 18.6653 26.6354C17.8598 25.2861 17.1284 23.9162 16.4607 22.536C17.1178 21.1559 17.8598 19.7757 18.6547 18.4264C19.4815 17.0359 20.3294 15.7176 21.2091 14.4919C22.7884 14.358 24.3889 14.2859 26 14.2859C27.6005 14.2859 29.201 14.358 30.7697 14.4816C31.6494 15.7073 32.5079 17.0153 33.3347 18.3955C34.1402 19.7448 34.8716 21.1147 35.5393 22.4948C34.8716 23.875 34.1402 25.2552 33.3453 26.6045ZM36.7689 25.2655C37.3412 26.6457 37.8288 28.0259 38.2316 29.3648C36.8431 29.6944 35.3804 29.9725 33.8647 30.1888C34.384 29.3957 34.9034 28.5821 35.391 27.7478C35.8785 26.9238 36.3343 26.0895 36.7689 25.2655ZM26.0212 36.2554C25.0355 35.2666 24.0497 34.1646 23.0746 32.9595C24.0285 33.0007 25.0037 33.0316 25.9894 33.0316C26.9857 33.0316 27.9715 33.011 28.936 32.9595C27.9821 34.1646 26.9963 35.2666 26.0212 36.2554ZM18.1353 30.1888C16.6302 29.9725 15.1781 29.7047 13.7896 29.3751C14.1818 28.0465 14.6694 26.6766 15.2205 25.3067C15.6551 26.1307 16.1109 26.9547 16.6091 27.7787C17.1072 28.6027 17.616 29.406 18.1353 30.1888ZM25.9682 8.75486C26.9539 9.74365 27.9397 10.8457 28.9148 12.0508C27.9609 12.0096 26.9857 11.9787 26 11.9787C25.0037 11.9787 24.0179 11.9993 23.0534 12.0508C24.0073 10.8457 24.9931 9.74365 25.9682 8.75486ZM18.1247 14.8215C17.6054 15.6146 17.086 16.4282 16.5985 17.2625C16.1109 18.0865 15.6551 18.9105 15.2205 19.7345C14.6482 18.3543 14.1606 16.9741 13.7578 15.6352C15.1464 15.3159 16.6091 15.0378 18.1247 14.8215ZM8.53241 27.7169C4.78027 26.1616 2.35304 24.1222 2.35304 22.5051C2.35304 20.8881 4.78027 18.8384 8.53241 17.2934C9.44395 16.9123 10.4403 16.5724 11.4684 16.2531C12.0726 18.2719 12.8675 20.3731 13.8532 22.5257C12.8781 24.6681 12.0938 26.759 11.5002 28.7674C10.4509 28.4482 9.45455 28.098 8.53241 27.7169ZM14.2348 42.4353C12.7933 41.632 12.168 38.5729 12.6555 34.6384C12.7721 33.6702 12.9629 32.6505 13.1961 31.6102C15.2735 32.1046 17.5418 32.4857 19.9266 32.7329C21.3575 34.6384 22.8414 36.3687 24.3359 37.8828C20.8806 41.0037 17.6372 42.7134 15.4325 42.7134C14.9556 42.7031 14.5528 42.6104 14.2348 42.4353ZM39.3763 34.5869C39.8744 38.5214 39.2597 41.5805 37.8288 42.3941C37.5108 42.5795 37.0974 42.6619 36.6099 42.6619C34.4158 42.6619 31.1618 40.9625 27.7065 37.8622C29.1904 36.3481 30.6743 34.6281 32.084 32.7226C34.4794 32.4754 36.7477 32.0943 38.8251 31.5896C39.0689 32.6299 39.2597 33.629 39.3763 34.5869ZM43.457 27.7169C42.5455 28.098 41.5491 28.4379 40.521 28.7572C39.9168 26.7384 39.1219 24.6372 38.1362 22.4845C39.1113 20.3422 39.8956 18.2513 40.4892 16.2428C41.5385 16.5621 42.5349 16.9123 43.4676 17.2934C47.2197 18.8487 49.647 20.8881 49.647 22.5051C49.6364 24.1222 47.2091 26.1719 43.457 27.7169Z" fill="#C6DABF"/>
<path d="M25.9894 27.2121C28.6646 27.2121 30.8332 25.1047 30.8332 22.5051C30.8332 19.9055 28.6646 17.7981 25.9894 17.7981C23.3142 17.7981 21.1455 19.9055 21.1455 22.5051C21.1455 25.1047 23.3142 27.2121 25.9894 27.2121Z" fill="#C6DABF"/>
</svg>
