<svg width="56" height="60" viewBox="0 0 56 60" fill="none" xmlns="http://www.w3.org/2000/svg">
<path d="M25.6851 0.797416C27.1879 -0.0399547 29.1454 -0.043737 30.6469 0.797416C38.2009 4.95254 45.7574 9.10115 53.3101 13.2588C54.7307 14.0377 55.6809 15.5767 55.6665 17.1702V42.169C55.677 43.8284 54.6329 45.4041 53.1342 46.1654C45.605 50.2977 38.0796 54.4349 30.5517 58.5671C29.0178 59.4209 27.0211 59.3551 25.5351 58.4314C23.2778 57.1576 21.0167 55.8901 18.7592 54.6175C18.2979 54.3498 17.7779 54.1367 17.4522 53.7014C17.7401 53.3235 18.2549 53.2765 18.6733 53.1115C19.6155 52.8199 20.4809 52.3517 21.3465 51.8974C21.5654 51.7516 21.8326 51.8075 22.0424 51.9379C23.9727 53.0153 25.8859 54.1239 27.8226 55.191C28.2357 55.4232 28.6541 55.1149 29.0072 54.9233C36.3957 50.8583 43.7932 46.8087 51.1804 42.7424C51.4542 42.6142 51.6055 42.3314 51.5832 42.0395C51.5884 33.793 51.5845 25.5449 51.5858 17.2983C51.6171 16.9672 51.4203 16.6627 51.1127 16.5272C43.6096 12.4139 36.1103 8.29424 28.6085 4.17989C28.4785 4.0929 28.3246 4.04623 28.1668 4.04601C28.0091 4.04578 27.855 4.09201 27.7248 4.17863C20.223 8.29424 12.725 12.4176 5.22321 16.5307C4.91668 16.6665 4.71097 16.9659 4.74745 17.2983C4.74874 25.5449 4.74745 33.793 4.74745 42.0408C4.73444 42.1832 4.76657 42.3261 4.83951 42.4502C4.91246 42.5743 5.02271 42.6736 5.15543 42.7349C7.15732 43.8399 9.16181 44.9372 11.165 46.0385C12.2935 46.6298 13.6791 46.9812 14.9225 46.5281C16.0197 46.1451 16.7888 45.0551 16.7679 43.921C16.7782 35.7226 16.7627 27.5229 16.7757 19.3257C16.7482 18.9617 17.1029 18.661 17.4664 18.6953C18.4283 18.689 19.3915 18.6827 20.3533 18.6978C20.7548 18.689 21.0311 19.0809 20.9815 19.4476C20.9776 27.6979 20.9918 35.9485 20.975 44.1988C20.9776 46.3976 20.0496 48.7902 17.9603 49.8661C15.3864 51.164 12.205 50.8888 9.66217 49.6442C7.46082 48.5746 5.36006 47.3123 3.19778 46.1665C1.69517 45.4094 0.656235 43.8273 0.666812 42.1692V17.1702C0.651054 15.5437 1.63905 13.9768 3.10388 13.2092C10.6318 9.07362 18.1585 4.93489 25.6851 0.797416Z" fill="#C6DABF"/>
<path d="M32.2524 18.1137C35.5356 17.908 39.0505 17.9918 42.005 19.5663C44.2925 20.7729 45.5607 23.3052 45.601 25.7791C45.5371 26.1128 45.1788 26.2968 44.8516 26.2739C43.899 26.2727 42.9462 26.2865 41.9936 26.2676C41.5895 26.2827 41.3546 25.9201 41.3039 25.5723C41.0302 24.3886 40.3671 23.2163 39.2226 22.6454C37.4657 21.7891 35.4286 21.8322 33.5128 21.85C32.1143 21.9223 30.6104 22.0402 29.4255 22.8408C28.5159 23.4472 28.2395 24.6715 28.5642 25.6574C28.8703 26.3653 29.7098 26.5937 30.3966 26.8043C34.3534 27.8117 38.5463 27.7114 42.4274 29.0371C44.0343 29.5776 45.6062 30.6282 46.1562 32.266C46.8757 34.461 46.5603 37.0847 44.956 38.8469C43.655 40.297 41.7602 41.0862 39.8704 41.5149C37.3562 42.0606 34.7471 42.0745 32.1939 41.8322C29.7931 41.5658 27.2947 40.9518 25.4413 39.3594C23.8565 38.0198 23.0824 35.9326 23.1593 33.918C23.1776 33.5778 23.5256 33.3406 23.8604 33.3686C24.8197 33.361 25.779 33.3585 26.7382 33.3698C27.1214 33.3431 27.4055 33.6655 27.4251 34.017C27.6021 35.1448 28.0375 36.3285 29.0477 36.9971C30.9974 38.2215 33.4437 38.1377 35.6762 38.1719C37.5257 38.0921 39.6018 38.0679 41.1111 36.8779C41.9074 36.1992 42.1434 35.0637 41.9282 34.0868C41.695 33.262 40.8087 32.8777 40.0476 32.6264C36.1416 31.4236 31.9018 31.86 28.0336 30.4999C26.4632 29.9596 24.9446 28.9382 24.3413 27.3677C23.4995 25.1449 23.8852 22.3955 25.6576 20.6929C27.3858 18.9992 29.8805 18.3472 32.2524 18.1137Z" fill="#C6DABF"/>
</svg>
