<svg width="44" height="48" viewBox="0 0 44 48" fill="none" xmlns="http://www.w3.org/2000/svg">
<path d="M0.988617 0.83768C0.988617 1.15454 1.81493 10.4491 2.83696 21.4969C3.83724 32.5236 4.70705 41.8814 4.72879 42.2828L4.79403 43.001L13.6008 45.3669L22.3859 47.7328L24.1473 47.268C25.104 47.0146 29.0399 45.9584 32.9106 44.9233C38.9123 43.3179 39.9343 42.9799 40.0213 42.6208C40.13 42.1138 43.8267 1.40803 43.8267 0.73206V0.267334H0.988617V0.83768ZM35.9332 9.81534C35.8462 10.3223 35.2808 16.3215 34.6719 23.1868C34.0413 30.0309 33.5194 35.6921 33.476 35.7344C33.389 35.84 22.7121 38.7129 22.4076 38.7129C22.1902 38.7129 16.3625 37.1708 12.3831 36.0724L11.2741 35.7555L11.0132 32.9672C10.8827 31.4251 10.7087 29.5662 10.6217 28.8269L10.4913 27.5172H13.2094C16.2755 27.5172 16.1885 27.4749 16.2103 29.3127C16.2103 29.7774 16.2755 30.4957 16.3407 30.9181L16.4712 31.6786L19.4503 32.4391L22.4076 33.1995L25.3432 32.4391C26.9524 32.0166 28.3006 31.6575 28.3006 31.6575C28.3223 31.6364 28.4528 30.39 28.5833 28.8902C28.7138 27.3693 28.866 25.8906 28.9312 25.5527L29.0399 24.9823H10.3825L10.2738 24.4965C10.2086 24.243 10.0781 23.0178 9.99113 21.7504L9.83892 19.4901H29.4313L29.5618 18.0537C29.6488 17.2721 29.7793 16.068 29.8445 15.3921C29.9315 14.526 29.9097 14.188 29.7358 14.2936C29.6053 14.357 24.9736 14.357 19.4068 14.2725L9.29529 14.1457L9.16481 12.6459C9.07783 11.8221 8.96911 10.6392 8.90387 10.0266L8.7734 8.92814H36.0419L35.9332 9.81534Z" fill="#C6DABF"/>
</svg>
