<svg width="78" height="76" viewBox="0 0 78 76" fill="none" xmlns="http://www.w3.org/2000/svg">
<path fill-rule="evenodd" clip-rule="evenodd" d="M3.43237 50.6842H5.79149V41.6573L9.42926 49.5295C9.86112 50.4736 10.4379 50.8061 11.5902 50.8061C12.7429 50.8061 13.3193 50.4736 13.7511 49.5295L17.3889 41.6573V50.6842H19.7299V41.6745C19.7299 40.8002 19.3694 40.3795 18.6312 40.1521C16.8485 39.6098 15.6417 40.0823 15.1016 41.2546L11.5361 49.0045L8.07877 41.2546C7.55649 40.0823 6.33193 39.6098 4.54917 40.1521C3.7928 40.3795 3.43278 40.7998 3.43278 41.6745V50.6842H3.43237ZM21.6926 43.3362H24.0336V48.3046C24.0158 48.5842 24.1236 49.2142 25.4204 49.2319C26.0686 49.2488 30.4805 49.2319 30.5164 49.2319V43.3185H32.8756C32.8933 43.3185 32.8756 51.3829 32.8756 51.4181C32.8933 53.4123 30.3364 53.8318 29.1659 53.8671H21.7467V52.3278C21.7467 52.3278 29.1482 52.3454 29.1659 52.3278C30.6787 52.1878 30.4987 51.4534 30.4987 51.2084V50.6132H25.5104C23.1872 50.5787 21.7104 49.5985 21.6926 48.4615C21.6926 48.3568 21.7467 43.3891 21.6926 43.3362ZM72.2775 37.6157C70.8374 37.5808 69.7383 37.7031 68.7838 38.1054C68.5142 38.2105 68.0997 38.2105 68.046 38.543C68.1901 38.6822 68.2256 38.91 68.3338 39.1029C68.5679 39.453 68.9465 39.9247 69.2883 40.1697C69.6488 40.4501 70.0269 40.7296 70.4229 40.9747C71.1433 41.3942 71.9356 41.6216 72.6016 42.0423C73.0161 42.2866 73.412 42.6022 73.8084 42.8817C73.988 43.0217 74.1325 43.2319 74.3666 43.3189V43.2844C74.2407 43.1268 74.2043 42.8994 74.0962 42.7237L73.5561 42.1991C73.0343 41.5345 72.3675 40.9394 71.6648 40.4501C71.1066 40.065 69.8461 39.5228 69.612 38.8931C69.5939 38.8755 69.5757 38.8755 69.5757 38.8578C69.972 38.8049 70.4406 38.6657 70.8007 38.5775C71.4133 38.4206 71.9711 38.4551 72.6012 38.2979C72.8898 38.2101 73.1775 38.1403 73.4661 38.0529V37.8952C73.142 37.5804 72.9261 37.1432 72.5661 36.8633C71.6478 36.0936 70.6388 35.3412 69.6124 34.7115C69.0361 34.3442 68.3338 34.1168 67.7219 33.8196C67.5233 33.7321 67.1629 33.6796 67.0196 33.5047C66.6947 33.1197 66.5333 32.6123 66.281 32.1575C65.7527 31.1598 65.2603 30.1444 64.8046 29.1134C64.4986 28.4312 64.2819 27.749 63.9045 27.1189C62.0314 24.145 60.0323 22.3433 56.9172 20.5762C56.2512 20.2088 55.4589 20.0516 54.6121 19.8591C54.1621 19.8238 53.7121 19.8066 53.2617 19.7713C52.9912 19.6662 52.7035 19.3341 52.433 19.1765C51.4066 18.5468 48.7593 17.1647 48.0026 18.984C47.5162 20.121 48.723 21.2408 49.1549 21.8183C49.4616 22.2206 49.839 22.6758 50.0557 23.1302C50.199 23.4274 50.2172 23.725 50.3435 24.0399C50.6495 24.8272 50.9017 25.6843 51.2799 26.4014C51.4777 26.7688 51.6936 27.1538 51.9459 27.4863C52.09 27.6788 52.3604 27.7662 52.3959 28.0811C52.1436 28.4308 52.1263 28.9558 51.9822 29.393C51.3518 31.3698 51.5858 33.8015 52.5222 35.2707C52.8108 35.7078 53.4768 36.67 54.4136 36.303C55.224 35.9705 55.0436 34.9907 55.2777 34.0987C55.3322 33.9062 55.2959 33.7662 55.4036 33.6263V33.6612C55.6377 34.1509 55.89 34.6233 56.1422 35.0954C56.6823 35.9529 57.655 36.8625 58.4836 37.4569C58.8973 37.7717 59.2396 38.3144 59.7978 38.4889V38.4536H59.7441C59.6359 38.2967 59.4737 38.2266 59.3477 38.1038C59.0236 37.789 58.6636 37.404 58.3932 37.0542C57.6554 36.0744 56.989 34.9899 56.3767 33.8701C56.0882 33.3279 55.8359 32.7331 55.6026 32.1909C55.5118 31.9811 55.5118 31.6663 55.314 31.5435C55.0436 31.9458 54.6662 32.2783 54.4491 32.7507C54.125 33.5032 54.0713 34.43 53.9635 35.375C53.8909 35.4098 53.909 35.3922 53.8727 35.4275C53.2972 35.2875 53.0986 34.71 52.8827 34.2203C52.3608 32.9782 52.2522 30.984 52.7204 29.5494C52.8463 29.182 53.4053 28.0273 53.1712 27.6776C53.0623 27.3451 52.7204 27.1354 52.5226 26.8731C52.2704 26.5582 52.0363 26.1383 51.8567 25.7709C51.4248 24.7911 51.2262 23.7066 50.7576 22.7272C50.5235 22.2547 50.1639 21.7823 49.8576 21.38C49.5153 20.9075 49.1371 20.5754 48.8675 20.0156C48.7775 19.823 48.6516 19.5082 48.7775 19.298C48.8312 19.1581 48.8857 19.1055 49.029 19.053C49.2631 18.8781 49.9298 19.1232 50.1813 19.2102C50.8299 19.4902 51.3881 19.7352 51.9463 20.1026C52.2167 20.2775 52.4871 20.6096 52.8112 20.6974H53.1716C53.748 20.8197 54.3958 20.7323 54.9358 20.8899C55.8904 21.1694 56.7545 21.607 57.5295 22.0971C59.9063 23.549 61.8336 25.6133 63.1659 28.0799C63.3819 28.4822 63.4719 28.8495 63.6523 29.2695C64.0309 30.1269 64.5164 31.0013 64.8946 31.8235C65.255 32.6633 65.6332 33.5032 66.1551 34.185C66.4437 34.5524 67.5237 34.7449 68.0101 34.937C68.3523 35.077 68.9101 35.2342 69.235 35.4271C69.8651 35.7768 70.4592 36.2144 71.0537 36.6167C71.3411 36.8111 72.2412 37.2483 72.2775 37.6157Z" fill="#C6DABF"/>
<path fill-rule="evenodd" clip-rule="evenodd" d="M53.9091 22.4138C53.6604 22.4139 53.4126 22.4434 53.1713 22.5016V22.5365H53.2249C53.369 22.8165 53.6213 23.009 53.8013 23.2537C53.9272 23.5336 54.0717 23.8135 54.1977 24.0935L54.2513 24.041C54.5036 23.8837 54.6118 23.6038 54.6118 23.1666C54.5218 23.0615 54.5036 22.9392 54.414 22.8165C54.2877 22.6412 54.0717 22.5538 53.9091 22.4138Z" fill="#C6DABF"/>
<path fill-rule="evenodd" clip-rule="evenodd" d="M34.6946 50.6842H41.4474C42.2397 50.6842 43.0139 50.5266 43.6261 50.2463C44.6344 49.7922 45.1389 49.1794 45.1389 48.3748V46.6956C45.1389 46.0486 44.5625 45.4189 43.4647 45.0163C42.8702 44.7889 42.1497 44.6838 41.4474 44.6838H38.6024C37.6478 44.6838 37.1978 44.4035 37.0896 43.7918C37.0715 43.722 37.0715 43.6518 37.0715 43.582V42.5497C37.0715 42.4799 37.0715 42.4274 37.0896 42.3576C37.1978 41.8851 37.4496 41.7451 38.2783 41.6754C38.3501 41.6754 38.4401 41.6577 38.5124 41.6577H45.2293V40.136H38.6205C37.666 40.136 37.1796 40.2058 36.7296 40.3282C35.325 40.7653 34.7127 41.4303 34.7127 42.6026V43.9322C34.7127 44.9645 35.9191 45.8389 37.9182 46.0486C38.1523 46.0486 38.3683 46.0663 38.6024 46.0663H41.0337C41.1237 46.0663 41.2133 46.0663 41.2852 46.0839C42.042 46.1537 42.3479 46.276 42.582 46.5379C42.7079 46.6779 42.7624 46.8006 42.7624 46.9583V48.2878C42.7624 48.4454 42.6542 48.6556 42.4201 48.8301C42.2216 49.0053 41.8793 49.1104 41.4293 49.1449C41.3393 49.1449 41.2678 49.1625 41.177 49.1625H34.6946V50.6842ZM59.7977 48.0243C59.7977 49.5989 60.9863 50.4733 63.4177 50.6485C63.6336 50.6662 63.8677 50.6838 64.0837 50.6838H70.2065V49.1614H64.0473C62.6605 49.1614 62.1387 48.8289 62.1387 48.0243V40.1353H59.7973L59.7977 48.0243ZM46.6339 48.1118V42.6893C46.6339 41.3072 47.6239 40.4677 49.6049 40.205C49.8034 40.1698 50.0375 40.1698 50.2353 40.1698H54.7009C54.9168 40.1698 55.1154 40.1698 55.3495 40.205C57.3123 40.4677 58.3205 41.3072 58.3205 42.6893V48.1118C58.3205 49.2319 57.8886 49.8263 56.9159 50.2114L59.2391 52.2408H56.5022L54.629 50.6136L52.7377 50.7187H50.2349C49.803 50.7187 49.3526 50.6666 48.8481 50.5266C47.3543 50.1412 46.6339 49.3715 46.6339 48.1118ZM49.173 47.9726C49.173 48.06 49.1912 48.1294 49.2093 48.2176C49.3534 48.8469 49.9653 49.197 50.8835 49.197H53.0271L51.0643 47.4825H53.8012L55.5117 48.9696C55.8185 48.812 56.0344 48.567 56.1063 48.2521C56.1244 48.1647 56.1244 48.0953 56.1244 48.0247V42.812C56.1244 42.7591 56.1244 42.6897 56.1063 42.6191C55.9622 42.0247 55.3503 41.6926 54.4494 41.6926H50.8839C49.8394 41.6926 49.1734 42.1298 49.1734 42.812L49.173 47.9726ZM71.2874 50.6842H71.6296V49.4244H72.0978V49.1618H70.8192V49.4244H71.2874V50.6842ZM73.9165 50.6842H74.2224V49.1618H73.7542L73.3405 50.2117L72.9268 49.1618H72.4405V50.6842H72.7646V49.5295L73.2146 50.6842H73.4487L73.8987 49.5295H73.9169L73.9165 50.6842Z" fill="#C6DABF"/>
</svg>
